{"title":"Ellie Goulding iTunes Festival 2012 (Full HD)","uid":8816533,"size":2169077909,"categoryP":"video","categoryS":"music_videos","magnet":"?xt=urn:btih:045a6f6d24ab09f1d09b73e3ad0f268527d0354f&amp;dn=Ellie+Goulding+iTunes+Festival+2012+%28Full+HD%29&amp;tr=udp%3A%2F%2Ftracker.openbittorrent.com%3A80&amp;tr=udp%3A%2F%2Fopen.demonii.com%3A1337&amp;tr=udp%3A%2F%2Ftracker.coppersurfer.tk%3A6969&amp;tr=udp%3A%2F%2Fexodus.desync.com%3A6969","seeders":1,"leechers":0,"uploader":"mediterraneanu","files":-1,"time":1376599454,"description":"Ellie Goulding iTunes Festival 2012.\n\nSongs-\n\nDon't Say A Word (Halcyon)\n0:00:00 - 0:04:20\n\nFigure 8 (Halcyon)\n0:04:28 - 0:08:27\n\nSalt Skin (Lights/Bright Lights)\n0:08:43 - 0:13:00\n\nMy Blood (Halcyon)\n0:13:32 - 0:17:40\n\nJoy (Halcyon)\n0:18:19 - 0:21:40\n\nExplosions (Halcyon)\n0:22:20 - 0:26:40\n\nYour Song (Lights/Bright Lights)\n0:27:37 - 0:30:39\n\nI Know You Care (Halcyon)\n0:31:21 - 0:34:50\n\nThe Writer (Lights/Bright Lights)\n0:35:17 - 0:39:31\n\nOnly You (Halcyon)\n0:39:49 - 0:44:04\n\nUnder The Sheets (Lights/Bright Lights)\n0:44:05 - 0:48:39\n\nAnything Could Happen (Halcyon)\n0:50:44 - 0:55:29\n\nHalcyon (Halcyon)\n0:56:30 - 1:00:04\n\nAnimal (Lights/Bright Lights)\n1:01:03 - 1:04:47\n\nStarry Eyed (Lights/Bright Lights)\n1:04:55 - 1:08:26\n\nDead In The Water (Halcyon)\n1:11:07 - 1:15:41\n\nLights (Lights/Bright Lights)\n1:15:46 - 1:19:28\n\n\nSource: iTunes\nRecord date: 26 September 2012\nPlace: The Roundhouse art centre, London\n\nGeneral\nComplete name : Ellie Goulding iTunes Festival 2012 (Full HD).mp4\nFormat : MPEG-4\nFormat profile : Base Media / Version 2\nCodec ID : mp42\nFile size : 1.98 GiB\nDuration : 1h 20mn\nOverall bit rate mode : Variable\nOverall bit rate : 3 542 Kbps\nEncoded date : UTC 2013-01-25 03:39:35\nTagged date : UTC 2013-01-25 03:39:35\ngsst : 0\ngstd : 4810128\ngssd : B4A7D0B22MH1376577112991338\ngshh :\n\nVideo\nID : 1\nFormat : AVC\nFormat/Info : Advanced Video Codec\nFormat profile : &lt;a class=&quot;__cf_email__&quot; href=&quot;/cdn-cgi/l/email-protection&quot; data-cfemail=&quot;b6fedfd1def6fa829886&quot;&gt;[email&amp;#160;protected]&lt;/a&gt;&lt;script cf-hash='f9e31' type=&quot;text/javascript&quot;&gt;\n/* &lt;![CDATA[ */!function(){try{var t=&quot;currentScript&quot;in document?document.currentScript:function(){for(var t=document.getElementsByTagName(&quot;script&quot;),e=t.length;e--;)if(t[e].getAttribute(&quot;cf-hash&quot;))return t[e]}();if(t&amp;&amp;t.previousSibling){var e,r,n,i,c=t.previousSibling,a=c.getAttribute(&quot;data-cfemail&quot;);if(a){for(e=&quot;&quot;,r=parseInt(a.substr(0,2),16),n=2;a.length-n;n+=2)i=parseInt(a.substr(n,2),16)^r,e+=String.fromCharCode(i);e=document.createTextNode(e),c.parentNode.replaceChild(e,c)}}}catch(u){}}();/* ]]&gt; */&lt;/script&gt;\nFormat settings, CABAC : Yes\nFormat settings, ReFrames : 1 frame\nCodec ID : avc1\nCodec ID/Info : Advanced Video Coding\nDuration : 1h 20mn\nBit rate : 3 347 Kbps\nMaximum bit rate : 13.6 Mbps\nWidth : 1 920 pixels\nHeight : 1 080 pixels\nDisplay aspect ratio : 16:9\nFrame rate mode : Constant\nFrame rate : 25.000 fps\nColor space : YUV\nChroma subsampling : 4:2:0\nBit depth : 8 bits\nScan type : Progressive\nBits/(Pixel*Frame) : 0.065\nStream size : 1.87 GiB (95%)\nTagged date : UTC 2013-01-25 03:41:06\n\nAudio\nID : 2\nFormat : AAC\nFormat/Info : Advanced Audio Codec\nFormat profile : LC\nCodec ID : 40\nDuration : 1h 20mn\nBit rate mode : Variable\nBit rate : 192 Kbps\nMaximum bit rate : 201 Kbps\nChannel count : 2 channels\nChannel positions : Front: L R\nSampling rate : 44.1 KHz\nCompression mode : Lossy\nStream size : 110 MiB (5%)\nTitle : IsoMedia File Produced by Google, 5-11-2011\nEncoded date : UTC 2013-01-25 03:40:36\nTagged date : UTC 2013-01-25 03:41:06","torrent":{"xt":"urn:btih:045a6f6d24ab09f1d09b73e3ad0f268527d0354f","amp;dn":"Ellie+Goulding+iTunes+Festival+2012+%28Full+HD%29","amp;tr":["udp%3A%2F%2Ftracker.openbittorrent.com%3A80","udp%3A%2F%2Fopen.demonii.com%3A1337","udp%3A%2F%2Ftracker.coppersurfer.tk%3A6969","udp%3A%2F%2Fexodus.desync.com%3A6969"],"infoHash":"045a6f6d24ab09f1d09b73e3ad0f268527d0354f","infoHashBuffer":{"type":"Buffer","data":[4,90,111,109,36,171,9,241,208,155,115,227,173,15,38,133,39,208,53,79]},"announce":[],"urlList":[]}}